<?xml version="1.0" standalone="no"?>
<!DOCTYPE svg PUBLIC "-//W3C//DTD SVG 20010904//EN"
 "http://www.w3.org/TR/2001/REC-SVG-20010904/DTD/svg10.dtd">
<svg version="1.0" xmlns="http://www.w3.org/2000/svg"
 width="512.000000pt" height="512.000000pt" viewBox="0 0 512.000000 512.000000"
 preserveAspectRatio="xMidYMid meet">

<g transform="translate(0.000000,512.000000) scale(0.100000,-0.100000)"
fill="#000000" stroke="none">
<path d="M1 3913 c0 -973 3 -1199 13 -1163 23 89 75 148 162 187 37 17 138 18
1783 23 l1743 5 -554 560 c-305 308 -563 576 -573 595 -10 20 -20 65 -23 105
-7 110 14 147 167 298 142 142 173 160 271 160 128 0 68 53 1122 -1001 526
-526 964 -972 973 -990 9 -19 20 -52 25 -75 4 -23 8 531 9 1231 l1 1272 -2560
0 -2560 0 1 -1207z"/>
<path d="M5110 2513 c-1 -77 -11 -88 -998 -1075 -1055 -1055 -994 -1001 -1123
-1001 -97 0 -142 26 -276 158 -129 127 -163 184 -163 276 0 128 -28 95 603
721 l572 568 -1755 2 c-1958 3 -1784 -4 -1870 74 -45 41 -75 92 -89 151 -5 23
-9 -445 -10 -1174 l-1 -1213 2560 0 2560 0 0 1270 c0 699 -2 1270 -5 1270 -3
0 -5 -12 -5 -27z"/>
</g>
</svg>
